<?xml version="1.0" encoding="UTF-8" standalone="no"?>
<!-- Created with Inkscape (http://www.inkscape.org/) -->

<svg
   xmlns:dc="http://purl.org/dc/elements/1.1/"
   xmlns:cc="http://creativecommons.org/ns#"
   xmlns:rdf="http://www.w3.org/1999/02/22-rdf-syntax-ns#"
   xmlns:svg="http://www.w3.org/2000/svg"
   xmlns="http://www.w3.org/2000/svg"
   xmlns:sodipodi="http://sodipodi.sourceforge.net/DTD/sodipodi-0.dtd"
   xmlns:inkscape="http://www.inkscape.org/namespaces/inkscape"
   width="210mm"
   height="297mm"
   viewBox="0 0 744.09448819 1052.3622047"
   id="svg2"
   version="1.1"
   inkscape:version="0.91 r13725"
   sodipodi:docname="game_herman.svg">
  <defs
     id="defs4" />
  <sodipodi:namedview
     id="base"
     pagecolor="#ffffff"
     bordercolor="#666666"
     borderopacity="1.0"
     inkscape:pageopacity="0.0"
     inkscape:pageshadow="2"
     inkscape:zoom="1"
     inkscape:cx="236.27101"
     inkscape:cy="565.07042"
     inkscape:document-units="px"
     inkscape:current-layer="layer1"
     showgrid="false"
     inkscape:window-width="1920"
     inkscape:window-height="1137"
     inkscape:window-x="-8"
     inkscape:window-y="-8"
     inkscape:window-maximized="1" />
  <metadata
     id="metadata7">
    <rdf:RDF>
      <cc:Work
         rdf:about="">
        <dc:format>image/svg+xml</dc:format>
        <dc:type
           rdf:resource="http://purl.org/dc/dcmitype/StillImage" />
        <dc:title></dc:title>
      </cc:Work>
    </rdf:RDF>
  </metadata>
  <g
     inkscape:label="Layer 1"
     inkscape:groupmode="layer"
     id="layer1">
    <path
       style="fill:none;stroke:#000000;stroke-width:6.05491972;stroke-miterlimit:4;stroke-dasharray:none"
       d="m -60.87937,325.12465 c -8.13164,-2.18685 -14.75551,-8.67633 -16.77604,-16.43571 -0.68681,-2.63759 -0.77581,-12.98929 -0.77581,-90.24774 0,-95.4252 -0.16137,-90.04002 2.86406,-95.59867 1.72799,-3.17484 6.83268,-7.9278 10.2162,-9.51219 1.46623,-0.6866 3.85789,-1.49908 5.31482,-1.80552 3.70519,-0.7793 84.473887,-0.7793 88.179074,0 4.057795,0.85347 7.641037,2.75714 10.941755,5.81303 3.44646,3.19082 5.175927,5.89682 6.51155,10.18819 0.90736,2.91529 0.94178,6.22739 0.94178,90.60473 0,95.8201 0.15562,90.61953 -2.867788,95.78692 -3.355879,5.73544 -9.779543,10.33124 -16.070787,11.49778 -1.664467,0.30862 -18.556634,0.48673 -44.239124,0.46638 -34.63069,-0.0272 -41.99483,-0.15349 -44.23969,-0.7572 z m 57.886998,-9.93524 c 4.386789,-2.26851 3.487391,-9.4045 -1.354819,-10.74936 -2.002877,-0.55627 -21.629839,-0.70994 -24.753359,-0.19376 -5.05407,0.83513 -6.73564,7.06839 -2.80019,10.37983 l 1.53441,1.29115 12.98329,0 c 10.388396,0 13.264543,-0.14532 14.390668,-0.7278 z m 34.585127,-21.90894 c 0.992008,-0.66698 1.931701,-1.85629 2.259121,-2.85914 0.885169,-2.71142 0.798432,-142.15662 -0.08992,-144.32637 -0.363325,-0.8875 -1.405195,-2.06763 -2.31525,-2.62248 -1.627804,-0.99243 -2.398898,-1.00887 -47.444476,-1.01071 l -45.78979,-0.002 -1.69852,1.14302 c -1.06028,0.71351 -1.93585,1.863 -2.33009,3.05915 -0.49941,1.51522 -0.604,16.74894 -0.49989,72.80224 l 0.13169,70.88604 1.04796,1.41122 c 0.57637,0.77618 1.58863,1.68911 2.24943,2.0287 0.92749,0.47667 11.64464,0.61918 46.9913,0.62487 l 45.789784,0.006 1.698526,-1.14202 z M -36.59902,267.92059 c -2.2693,-0.68115 -4.6606,-2.8018 -5.78987,-5.13458 -1.03972,-2.14774 -1.05095,-2.57618 -1.05095,-40.14775 l 0,-37.97685 1.12473,-2.2237 c 0.65699,-1.29896 2.02476,-2.8492 3.289,-3.72774 2.04432,-1.42067 2.48055,-1.51403 7.87306,-1.68524 l 5.70879,-0.18134 0,-2.96803 c 0,-2.48473 0.19982,-3.16782 1.22697,-4.195 1.1851,-1.1851 1.46423,-1.22697 8.18056,-1.22697 6.277833,0 7.081594,0.10081 8.270689,1.03603 1.178802,0.92728 1.317097,1.37337 1.317097,4.24895 l 0,3.21292 5.123733,0.0121 c 3.871123,0.009 5.613638,0.23341 7.127549,0.92128 2.520119,1.14487 5.031851,3.97 5.71424,6.42724 0.722564,2.60192 0.722564,74.15654 0,76.75843 -0.682389,2.45727 -3.194121,5.28241 -5.71424,6.42727 -1.832733,0.83261 -3.667979,0.90757 -21.498988,0.87833 -10.72236,-0.0182 -20.12843,-0.22222 -20.90237,-0.45437 z m 38.897921,-45.23044 0,-35.99114 -18.120531,-0.13109 -18.12053,-0.13109 0,36.25353 0,36.25356 18.12053,-0.13108 18.120531,-0.13109 0,-35.99114 z m -23.151591,27.10503 c -0.44074,-0.53104 -0.10687,-3.16727 1.43047,-11.29845 1.10297,-5.83319 1.86098,-10.83942 1.68448,-11.125 -0.20798,-0.33642 -1.90109,-0.40556 -4.80972,-0.19649 -4.74957,0.34153 -7.39569,0.0357 -7.39569,-0.85453 0,-0.62462 16.327996,-29.07003 17.476856,-30.44689 0.536709,-0.64321 0.987407,-0.78136 1.493568,-0.45778 0.620932,0.3969 0.453271,1.9201 -1.168963,10.61951 -1.041628,5.58585 -2.001601,10.54976 -2.133271,11.03091 -0.21737,0.79456 0.2643,0.87479 5.252069,0.87479 5.82562,0 7.072843,0.21949 7.072843,1.24525 0,0.79677 -16.307082,29.16516 -17.474472,30.39921 -0.71808,0.75908 -0.94441,0.79226 -1.42817,0.2095 z"
       id="path4165"
       inkscape:connector-curvature="0"
       inkscape:export-filename="C:\Users\Xpar\Desktop\personal\sintspelherman\assets\img\hidden_1.png"
       inkscape:export-xdpi="90"
       inkscape:export-ydpi="90" />
    <path
       style="fill:none;stroke:#000000;stroke-width:6.47786808;stroke-miterlimit:4;stroke-dasharray:none"
       d="m 370.69089,326.38478 c -3.44115,-1.25039 -5.73906,-3.06882 -11.99032,-9.48852 -7.17152,-7.36475 -8.17708,-9.22581 -8.17708,-15.13372 0,-3.42851 0.22598,-4.71298 1.18409,-6.72976 0.95083,-2.0015 9.93347,-11.2574 45.6005,-46.98761 l 44.41642,-44.49511 16.07845,16.08525 16.07849,16.08526 -44.49299,44.41149 c -36.42166,36.35493 -44.94514,44.6192 -46.98549,45.55655 -3.27339,1.5038 -8.61547,1.82135 -11.71207,0.69617 z m 137.85317,-68.22367 c -1.5542,-0.56639 -11.21082,-9.96481 -45.4517,-44.2363 -47.83263,-47.87539 -45.30396,-45.0113 -44.03246,-49.87297 0.49016,-1.87418 3.29653,-4.86109 24.32111,-25.88566 26.17134,-26.17133 25.41294,-25.55914 30.12287,-24.31601 1.83078,0.48322 3.99425,2.42758 15.92322,14.31052 l 13.80459,13.75128 1.99454,-1.80194 c 2.5494,-2.30324 5.28999,-3.08765 8.15767,-2.33492 1.82148,0.4781 3.77378,2.21122 13.91965,12.35708 10.14583,10.14587 11.87898,12.09817 12.35708,13.91965 0.75273,2.86768 -0.0324,5.60828 -2.33491,8.15767 l -1.80195,1.99454 13.75128,13.8046 c 11.88294,11.92896 13.82727,14.09244 14.31049,15.92321 1.23876,4.69325 1.7944,4.00054 -23.81977,29.69516 -12.79642,12.83661 -23.8348,23.64105 -24.52971,24.0099 -2.07409,1.10085 -4.57254,1.29654 -6.692,0.52419 z"
       id="path4191"
       inkscape:connector-curvature="0"
       inkscape:export-filename="C:\Users\Xpar\Desktop\personal\sintspelherman\assets\img\hidden_2.png"
       inkscape:export-xdpi="90"
       inkscape:export-ydpi="90" />
    <path
       style="fill:none;stroke:#000000;stroke-width:6.01525307;stroke-miterlimit:4;stroke-dasharray:none"
       d="m 657.17702,334.0552 c -2.88209,-0.58522 -9.49,-4.06279 -12.66358,-6.66451 -1.94468,-1.59425 -4.46449,-4.51818 -6.23102,-7.23039 -2.38165,-3.65656 -3.57878,-4.9043 -6.07631,-6.33325 -6.72217,-3.84604 -12.29816,-11.39004 -14.40082,-19.48341 -1.91983,-7.3898 -1.08416,-13.67498 2.80443,-21.09197 3.15482,-6.01739 3.15554,-6.01805 46.82021,-42.14293 6.73561,-5.57253 12.95144,-10.74883 13.81297,-11.5029 l 1.5664,-1.37103 0,-54.15208 0,-54.15204 1.66503,-1.66499 1.66499,-1.665 27.42874,0 27.42874,0 1.66499,1.665 c 1.64851,1.64851 1.66503,1.73034 1.66503,8.2593 l 0,6.59428 5.80321,0 c 7.07307,0 9.1188,0.99923 10.11071,4.93849 0.76713,3.04643 0.80625,120.54685 0.0421,126.42625 -0.28994,2.23169 -1.16435,5.498 -1.9429,7.25842 -2.79664,6.32372 -5.15988,9.08373 -13.79764,16.11412 -4.55872,3.71041 -10.1501,8.28414 -12.42531,10.16382 -16.09005,13.29314 -46.0345,37.50279 -49.18935,39.76882 -2.10145,1.50941 -5.4869,3.55204 -7.52324,4.53914 -3.43008,1.66271 -4.1843,1.80289 -10.25291,1.90539 -3.60278,0.0608 -7.1913,-0.018 -7.97451,-0.17865 z m 16.23261,-10.92746 c 2.43151,-1.26281 9.54013,-6.59293 18.22742,-13.66711 7.83273,-6.37833 17.63639,-14.32433 21.78589,-17.6578 l 7.5446,-6.06088 0.003,-9.05957 c 0.002,-8.56963 -0.0511,-9.01401 -0.99411,-8.21687 -0.54823,0.46351 -8.65448,6.97538 -18.01388,14.47087 -9.3594,7.49545 -21.31965,17.08846 -26.5783,21.31781 -12.86269,10.34497 -17.27046,12.88825 -24.11557,13.91476 -1.4495,0.21745 -2.63544,0.63319 -2.63544,0.92409 0,0.29084 1.34567,1.41536 2.99043,2.49883 7.28991,4.80215 14.51618,5.31162 21.78628,1.53587 z m -20.78947,-14.62669 c 5.95931,-2.00642 5.65536,-1.78283 38.44845,-28.28318 l 13.67056,-11.04725 0.28482,-21.80836 0.28483,-21.80833 1.86021,-1.66153 1.86022,-1.66157 13.37675,0 13.37678,0 0,-35.31561 0,-35.31561 -22.21466,0 -22.21466,0 0,34.10685 c 0,28.34504 -0.13805,34.43738 -0.81753,36.06348 -0.9533,2.28159 -2.61053,3.83768 -14.86216,13.95503 -46.88481,38.71745 -44.588,36.66715 -47.40507,42.31731 -2.16413,4.3406 -2.30209,4.91079 -2.18104,9.01472 0.16662,5.65335 0.97053,8.34509 3.72245,12.46617 5.03513,7.54012 15.19886,11.5405 22.81011,8.97788 z m 84.58586,-36.21149 c 3.9159,-3.1695 7.92717,-6.68226 8.91394,-7.80612 2.69219,-3.06621 4.63548,-7.80906 5.3512,-13.06028 l 0.64048,-4.69924 -4.9775,0 -4.97751,0 -1.56453,2.66969 c -1.994,3.40247 -5.52814,7.23921 -8.64119,9.38103 l -2.43389,1.67455 0,8.80155 c 0,4.84084 0.12813,8.80152 0.28452,8.80152 0.1564,0 3.48852,-2.5932 7.40442,-5.7627 z m -5.53166,-25.74925 c 1.95818,-2.91972 3.43492,-7.43723 3.86805,-11.83291 l 0.3875,-3.93247 -11.18094,0 -11.18091,0 0,15.67629 0,15.67629 8.40168,-6.82226 c 4.62095,-3.75222 8.98803,-7.69646 9.70462,-8.76494 z m 20.07732,-43.3913 -0.002,-34.746 -3.56909,0 -3.56906,0 -0.14677,34.91454 -0.14677,34.91452 3.71775,-0.16843 3.71779,-0.16843 -0.002,-34.74599 z m 0.18557,-46.28088 0.0794,-3.5604 -3.84483,3.6e-4 -3.84486,3.3e-4 0,3.72847 0,3.72849 3.76558,-0.16842 3.76554,-0.16843 0.0794,-3.5604 z m 0.006,-18.2276 -0.0728,-6.69233 -3.62973,0 -3.62972,0 -0.16061,6.69287 -0.16061,6.69287 3.86291,-5.4e-4 3.86293,-5.4e-4 -0.0728,-6.69233 z m -16.16106,1.28215 0,-3.70245 -22.21463,0 -22.21466,0 0,3.70245 0,3.70245 22.21466,0 22.21463,0 0,-3.70245 z m 0,-17.9426 0,-6.83528 -22.21463,0 -22.21466,0 0,6.83528 0,6.83526 22.21466,0 22.21463,0 0,-6.83526 z"
       id="path4226"
       inkscape:connector-curvature="0"
       inkscape:export-filename="C:\Users\Xpar\Desktop\personal\sintspelherman\assets\img\hidden_4.png"
       inkscape:export-xdpi="90"
       inkscape:export-ydpi="90" />
    <path
       style="fill:none;stroke:#000000;stroke-width:6.05439711;stroke-miterlimit:4;stroke-dasharray:none"
       d="m 195.55281,336.80057 c -0.89105,-0.97216 -2.53806,-2.98407 -3.65997,-4.4709 -1.12191,-1.48684 -3.0067,-3.91983 -4.18843,-5.40667 -1.1817,-1.48684 -7.36409,-9.4409 -13.73864,-17.67566 -6.37455,-8.2348 -15.44386,-19.93192 -20.15403,-25.99362 -4.71017,-6.06172 -11.53196,-14.85797 -15.15957,-19.54722 -3.62758,-4.68925 -7.55985,-9.74241 -8.73834,-11.22924 -2.45667,-3.09943 -10.88787,-13.94349 -14.81986,-19.06106 -1.4642,-1.90568 -3.22364,-4.32566 -3.90987,-5.37773 l -1.24769,-1.91289 0.13652,-11.88199 c 0.18708,-16.2906 0.55083,-21.01893 1.71191,-22.25484 1.31805,-1.40302 4.44275,-2.98052 7.42823,-3.75019 13.43274,-3.46296 28.50202,-10.6465 38.72026,-18.45795 3.67526,-2.8096 7.81705,-7.28123 10.56817,-11.40978 5.18892,-7.78692 10.76825,-21.72956 13.35197,-33.3663 1.97155,-8.87962 2.32192,-9.56897 4.19246,-8.24839 0.59381,0.41921 4.17556,4.56314 7.95938,9.20868 3.78385,4.64557 7.31053,8.61026 7.83708,8.81048 0.5699,0.21675 2.16572,0.18466 3.9429,-0.079 2.39733,-0.35582 3.1972,-0.32993 4.05984,0.13138 0.59087,0.31595 3.13472,2.91389 5.65302,5.7732 4.22639,4.79869 20.02083,22.81242 33.54868,38.26261 3.10436,3.54551 11.53469,13.17098 18.73397,21.38985 7.19931,8.2189 16.7042,19.07383 21.122,24.12208 4.41778,5.04825 8.31087,9.70269 8.65131,10.34315 0.34877,0.65611 0.49919,1.54202 0.34456,2.02925 -0.15106,0.47561 -1.74046,2.7938 -3.53229,5.15157 -3.11141,4.09422 -3.46817,4.72064 -3.35565,5.89262 0.0272,0.28244 2.71622,2.73283 5.97581,5.4456 3.2596,2.71276 6.19114,5.42761 6.51454,6.03302 0.52779,0.98808 0.50651,1.19257 -0.20797,1.99741 -0.43777,0.49316 -1.7945,1.54027 -3.01491,2.32695 -1.22039,0.78667 -2.58154,1.79294 -3.02478,2.23616 -0.97233,0.97236 -0.76609,1.47261 2.12452,5.15374 2.45578,3.12737 2.91126,3.99787 2.91126,5.56372 0,1.17567 -1.98666,16.15098 -2.931,22.09349 -0.91875,5.78165 -0.84885,5.71844 -9.64798,8.72436 -3.26063,1.11389 -10.04588,3.45994 -15.07823,5.21344 -5.03239,1.75347 -9.61766,3.34178 -10.18949,3.52956 -0.57187,0.18769 -5.71862,1.96738 -11.43718,3.9547 -5.71859,1.98736 -13.29834,4.61049 -16.84388,5.82918 -3.54552,1.21872 -11.12526,3.84151 -16.84388,5.82844 -16.13745,5.60701 -19.87722,6.82098 -21.05383,6.83424 -0.76095,0.009 -1.58068,-0.52219 -2.71089,-1.75529 z m 39.16553,-18.41799 c 51.78329,-17.41133 54.03395,-18.17406 54.80189,-18.57199 1.004,-0.52022 1.3814,-1.63296 2.56513,-7.56279 0.80974,-4.05644 0.90428,-5.1472 0.48323,-5.57534 -0.42393,-0.4311 -2.6138,0.49292 -11.51746,4.8598 -21.53934,10.56411 -35.21016,15.75067 -65.2687,24.76224 -3.54555,1.06294 -7.4447,2.23538 -8.66481,2.60539 -1.2367,0.37507 -2.46832,1.0568 -2.78321,1.54064 -0.31068,0.47732 -0.69677,2.33702 -0.85803,4.1327 -0.27941,3.11117 -0.20312,3.45839 0.88143,4.00701 0.006,0.003 13.6692,-4.58545 30.36053,-10.19766 z m -38.55004,6.5649 c 0.20797,-0.40029 0.50222,-3.53513 0.65379,-6.96628 0.15166,-3.43118 0.46273,-8.89482 0.69156,-12.14146 0.34316,-4.86904 0.31241,-6.14385 -0.17558,-7.2782 -0.32539,-0.75638 -5.43906,-7.17703 -11.36368,-14.2681 -5.92465,-7.09106 -16.15694,-19.34964 -22.7384,-27.2413 -6.58147,-7.89166 -12.28701,-14.72278 -12.67903,-15.18028 -0.39199,-0.45747 -8.16538,-9.77818 -17.27422,-20.71267 -9.10884,-10.93448 -16.77804,-19.80853 -17.04265,-19.72014 -0.34946,0.11685 -0.48111,3.45673 -0.48111,12.20415 l 0,12.04341 1.4543,1.85416 c 0.79987,1.01977 5.85305,7.39387 11.22927,14.16462 5.37621,6.77076 13.61158,17.15205 18.30084,23.06953 8.23531,10.39237 12.55821,15.84505 27.34438,34.49087 18.03825,22.74682 20.99752,26.40952 21.33739,26.40952 0.2007,0 0.53511,-0.32751 0.74314,-0.72783 z m 53.11617,-26.05546 c 6.81361,-2.32819 11.15413,-4.2039 20.77263,-8.97673 7.9938,-3.96666 17.83398,-9.51567 21.487,-12.11685 0.72507,-0.51629 1.17942,-1.21805 1.17942,-1.82165 0,-0.94563 -2.41255,-3.95397 -3.16832,-3.95076 -0.60799,0.002 -2.61647,1.42139 -7.64501,5.40049 -8.69493,6.88034 -18.04147,12.73397 -29.91962,18.73827 -9.29411,4.69809 -9.7148,5.12208 -2.7061,2.72723 z m -9.28875,-5.46779 c 3.59574,-1.6589 8.74246,-4.27673 11.43721,-5.81743 11.32735,-6.47629 39.21112,-26.41372 39.21112,-28.03673 0,-1.01214 -3.59271,-4.18153 -4.74005,-4.18153 -0.5666,0 -3.17405,2.1956 -7.32364,6.1668 -16.11729,15.42445 -22.23574,20.09248 -38.61161,29.45855 -8.32029,4.75872 -10.45997,6.07985 -10.46097,6.45907 -0.001,0.5059 3.77837,-0.95321 10.48794,-4.04873 z m -30.90397,-2.95824 c 6.03335,-3.19154 5.97205,-3.15758 13.37162,-7.41497 8.73062,-5.02321 14.83536,-9.23982 18.64657,-12.8794 6.43679,-6.14693 15.06122,-17.188 18.70736,-23.94937 2.07169,-3.84176 6.20231,-14.06067 6.54187,-16.18425 0.28637,-1.79041 2.1533,0.65551 -25.41173,-33.29107 -11.14094,-13.72018 -14.70213,-18.11358 -19.88997,-24.53799 -5.09413,-6.30835 -9.1547,-11.3209 -13.65699,-16.85883 -1.6804,-2.06691 -6.46555,-7.98175 -10.63367,-13.1441 -4.16812,-5.16234 -7.82391,-9.5898 -8.12394,-9.83882 -0.91915,-0.76279 -1.51278,0.0357 -2.42739,3.26508 -1.14649,4.04803 -3.91907,12.46906 -5.05914,15.36588 -1.19753,3.04282 -4.21008,8.83248 -5.7927,11.13273 -6.72489,9.77434 -20.35201,20.14692 -33.61105,25.58389 -3.35634,1.37628 -11.16197,3.94292 -17.05181,5.607 -2.06885,0.58449 -2.73202,0.95929 -2.82553,1.59676 -0.0832,0.5676 2.23556,3.6864 7.27821,9.78917 29.08026,35.19379 36.57621,44.27677 53.32379,64.61343 10.36059,12.58092 19.13399,23.10833 19.49643,23.39425 0.36245,0.28607 0.93441,0.51989 1.271,0.51989 0.3366,0 2.96778,-1.24617 5.84707,-2.76928 z m 18.59562,0.0273 c 5.73264,-2.70017 18.53251,-10.84213 27.60536,-17.55966 14.08719,-10.43015 20.85167,-17.69906 29.06801,-31.23548 2.29894,-3.78748 2.50549,-4.70848 1.40964,-6.28522 -0.70942,-1.02068 -35.52069,-42.88109 -56.88484,-68.40376 -6.12717,-7.31983 -12.81713,-15.32065 -14.8666,-17.77964 -3.5078,-4.20869 -4.47499,-5.07876 -4.47499,-4.02563 0,0.38124 6.84425,9.07754 16.01573,20.34961 3.77288,4.63703 10.70166,13.19689 15.83512,19.56285 5.32215,6.59996 13.58449,16.77159 24.23085,29.83016 8.45,10.36456 9.21046,11.44475 9.21273,13.08592 0.006,3.74519 -9.36978,23.56431 -15.49708,32.7617 -5.36141,8.04775 -13.20143,14.92176 -30.49948,26.74148 -3.22517,2.20377 -6.10192,4.2936 -6.3928,4.64409 -0.47334,0.57032 -0.3544,0.57568 1.13299,0.0509 0.91403,-0.32249 2.76144,-1.10426 4.10536,-1.73728 z"
       id="path4239"
       inkscape:connector-curvature="0"
       inkscape:export-filename="C:\Users\Xpar\Desktop\personal\sintspelherman\assets\img\hidden_3.png"
       inkscape:export-xdpi="90"
       inkscape:export-ydpi="90" />
    <g
       id="g4950"
       inkscape:export-filename="C:\Users\Xpar\Desktop\personal\sintspelherman\assets\img\UI_1_l1.png"
       inkscape:export-xdpi="90"
       inkscape:export-ydpi="90">
      <path
         inkscape:export-ydpi="90"
         inkscape:export-xdpi="90"
         inkscape:export-filename="C:\Users\Xpar\Desktop\personal\sintspelherman\assets\img\hidden_1.png"
         inkscape:connector-curvature="0"
         id="path4165-3"
         d="m 31.876976,502.40344 c -3.27979,-0.88204 -5.95144,-3.49949 -6.7664,-6.62913 -0.27701,-1.06384 -0.31291,-5.23907 -0.31291,-36.40026 0,-38.48853 -0.0651,-36.31649 1.15518,-38.5585 0.69696,-1.28053 2.75588,-3.19757 4.12057,-3.83662 0.59139,-0.27693 1.55603,-0.60463 2.14367,-0.72823 1.49444,-0.31432 34.07145,-0.31432 35.56589,0 1.63666,0.34424 3.08191,1.11206 4.41321,2.34461 1.39009,1.28698 2.08765,2.37841 2.62635,4.10928 0.36598,1.17584 0.37986,2.51173 0.37986,36.54425 0,38.6478 0.0628,36.55021 -1.15669,38.63441 -1.35355,2.31332 -3.94445,4.16698 -6.48194,4.63749 -0.67134,0.12447 -7.48458,0.19631 -17.84328,0.1881 -13.96784,-0.011 -16.93807,-0.0619 -17.84351,-0.3054 z m 23.34798,-4.00725 c 1.76935,-0.91498 1.40659,-3.79319 -0.54645,-4.33562 -0.80783,-0.22436 -8.72412,-0.28634 -9.98395,-0.0782 -2.03849,0.33684 -2.71673,2.85094 -1.12942,4.18657 l 0.61888,0.52077 5.23665,0 c 4.19002,0 5.35008,-0.0586 5.80429,-0.29355 z m 13.94946,-8.83669 c 0.40011,-0.26902 0.77912,-0.74871 0.91118,-1.1532 0.35703,-1.09361 0.32204,-57.33704 -0.0363,-58.21218 -0.14654,-0.35796 -0.56676,-0.83395 -0.93382,-1.05774 -0.65655,-0.40029 -0.96756,-0.40692 -19.13612,-0.40766 l -18.46872,-8.1e-4 -0.68507,0.46103 c -0.42765,0.28778 -0.7808,0.75141 -0.93981,1.23386 -0.20143,0.61115 -0.24362,6.75547 -0.20163,29.36385 l 0.0531,28.59097 0.42268,0.5692 c 0.23247,0.31306 0.64075,0.68128 0.90728,0.81825 0.37409,0.19226 4.69671,0.24974 18.95333,0.25203 l 18.46872,0.002 0.68508,-0.46062 z m -27.50427,-10.22858 c -0.91529,-0.27473 -1.87979,-1.13007 -2.33527,-2.07097 -0.41936,-0.86626 -0.42389,-1.03907 -0.42389,-16.19307 l 0,-15.31748 0.45365,-0.8969 c 0.26499,-0.52392 0.81666,-1.14919 1.32657,-1.50354 0.82455,-0.57301 1.0005,-0.61066 3.1755,-0.67972 l 2.30257,-0.0731 0,-1.19711 c 0,-1.00219 0.0806,-1.2777 0.49488,-1.692 0.47799,-0.478 0.59058,-0.49489 3.29952,-0.49489 2.53209,0 2.85627,0.0407 3.33588,0.41787 0.47545,0.37401 0.53123,0.55393 0.53123,1.71376 l 0,1.29589 2.06659,0.005 c 1.56137,0.004 2.26419,0.0942 2.87481,0.37159 1.01646,0.46177 2.02953,1.60125 2.30476,2.59234 0.29144,1.04945 0.29144,29.91009 0,30.95953 -0.27523,0.99111 -1.2883,2.13059 -2.30476,2.59236 -0.73921,0.33582 -1.47943,0.36605 -8.67134,0.35426 -4.32473,-0.007 -8.11854,-0.0896 -8.4307,-0.18327 z m 15.68897,-18.24312 0,-14.51656 -7.30868,-0.0529 -7.30868,-0.0529 0,14.6224 0,14.6224 7.30868,-0.0529 7.30868,-0.0529 0,-14.51656 z m -9.33789,10.93247 c -0.17777,-0.21419 -0.0431,-1.27748 0.57696,-4.55709 0.44487,-2.35274 0.7506,-4.37194 0.67941,-4.48712 -0.0839,-0.13569 -0.76678,-0.16358 -1.93994,-0.0793 -1.91567,0.13775 -2.98295,0.0144 -2.98295,-0.34467 0,-0.25193 6.58569,-11.72502 7.04906,-12.28036 0.21648,-0.25943 0.39826,-0.31515 0.60242,-0.18464 0.25044,0.16009 0.18282,0.77445 -0.47149,4.28325 -0.42013,2.25298 -0.80732,4.25511 -0.86043,4.44917 -0.0877,0.32048 0.1066,0.35284 2.11835,0.35284 2.34969,0 2.85275,0.0885 2.85275,0.50225 0,0.32137 -6.57726,11.76339 -7.04811,12.26113 -0.28963,0.30617 -0.38091,0.31955 -0.57603,0.0845 z"
         style="fill:none;stroke:#000000;stroke-width:2.44217372;stroke-miterlimit:4;stroke-dasharray:none" />
      <rect
         y="409.36221"
         x="0"
         height="100"
         width="100"
         id="rect4891"
         style="opacity:1;fill:none;fill-opacity:1;fill-rule:nonzero;stroke:none;stroke-width:5;stroke-linecap:round;stroke-linejoin:round;stroke-miterlimit:4;stroke-dasharray:none;stroke-dashoffset:0;stroke-opacity:1" />
    </g>
    <g
       id="g4946"
       inkscape:export-filename="C:\Users\Xpar\Desktop\personal\sintspelherman\assets\img\UI_3_l1.png"
       inkscape:export-xdpi="90"
       inkscape:export-ydpi="90">
      <path
         inkscape:export-ydpi="90"
         inkscape:export-xdpi="90"
         inkscape:export-filename="C:\Users\Xpar\Desktop\personal\sintspelherman\assets\img\hidden_3.png"
         inkscape:connector-curvature="0"
         id="path4239-5"
         d="m 152.4237,611.48916 c -0.35939,-0.39211 -1.02369,-1.20359 -1.4762,-1.80328 -0.45251,-0.5997 -1.21272,-1.58101 -1.68935,-2.18071 -0.47662,-0.5997 -2.97021,-3.80787 -5.5413,-7.12925 -2.5711,-3.3214 -6.22909,-8.03928 -8.12887,-10.48419 -1.89979,-2.44492 -4.65127,-5.99277 -6.11442,-7.88412 -1.46314,-1.89135 -3.04917,-3.92948 -3.52449,-4.52917 -0.99087,-1.25011 -4.39149,-5.62393 -5.9774,-7.68803 -0.59057,-0.76863 -1.30022,-1.7447 -1.577,-2.16904 l -0.50324,-0.77154 0.0551,-4.79245 c 0.0755,-6.5706 0.22217,-8.47771 0.69048,-8.9762 0.53162,-0.56589 1.79193,-1.20216 2.99608,-1.51259 5.41792,-1.39674 11.49592,-4.29413 15.61732,-7.44478 1.48237,-1.13321 3.1529,-2.93679 4.26253,-4.60199 2.09289,-3.14075 4.34324,-8.76433 5.38535,-13.45786 0.7952,-3.58148 0.93651,-3.85952 1.69097,-3.32688 0.23951,0.16908 1.68416,1.84048 3.21032,3.7142 1.52616,1.87373 2.9486,3.47284 3.16098,3.55359 0.22986,0.0874 0.87352,0.0745 1.59032,-0.0319 0.96693,-0.14352 1.28955,-0.13307 1.63748,0.053 0.23832,0.12743 1.26435,1.17528 2.28008,2.32854 1.70466,1.93549 8.07514,9.2011 13.53142,15.43273 1.25211,1.43004 4.65237,5.31235 7.55611,8.62732 2.90375,3.31499 6.73742,7.69319 8.51929,9.72934 1.78185,2.03614 3.35207,3.91345 3.48939,4.17177 0.14067,0.26464 0.20134,0.62196 0.13897,0.81847 -0.0609,0.19184 -0.70199,1.12685 -1.4247,2.07782 -1.25495,1.65135 -1.39884,1.90401 -1.35346,2.37672 0.011,0.11391 1.09555,1.10225 2.41026,2.19641 1.31473,1.09416 2.49713,2.18915 2.62756,2.43334 0.21288,0.39853 0.20429,0.48101 -0.0839,0.80563 -0.17657,0.19891 -0.72379,0.62125 -1.21603,0.93854 -0.49222,0.3173 -1.04122,0.72316 -1.22,0.90193 -0.39218,0.39219 -0.309,0.59396 0.8569,2.07869 0.9905,1.26139 1.17421,1.61249 1.17421,2.24406 0,0.47419 -0.80129,6.51429 -1.18217,8.91112 -0.37057,2.33196 -0.34238,2.30646 -3.89139,3.51886 -1.31514,0.44927 -4.05188,1.39552 -6.08161,2.10277 -2.02975,0.70724 -3.87916,1.34787 -4.1098,1.42361 -0.23066,0.0757 -2.30653,0.79351 -4.61304,1.59507 -2.30652,0.80158 -5.36372,1.85959 -6.79376,2.35113 -1.43004,0.49155 -4.48723,1.54942 -6.79377,2.35082 -6.50883,2.26152 -8.01722,2.75116 -8.49179,2.75651 -0.30691,0.004 -0.63754,-0.21062 -1.0934,-0.70798 z m 15.79691,-7.42866 c 20.88612,-7.02263 21.7939,-7.33027 22.10364,-7.49077 0.40495,-0.20983 0.55717,-0.65864 1.03461,-3.05036 0.3266,-1.63611 0.36473,-2.07605 0.1949,-2.24874 -0.17099,-0.17388 -1.05424,0.19882 -4.64542,1.96014 -8.68761,4.2609 -14.20156,6.35283 -26.32528,9.98753 -1.43006,0.42872 -3.00273,0.90161 -3.49484,1.05085 -0.49881,0.15128 -0.99557,0.42625 -1.12258,0.6214 -0.1253,0.19252 -0.28103,0.9426 -0.34607,1.66687 -0.1127,1.25485 -0.0819,1.3949 0.35551,1.61617 0.002,10e-4 5.5133,-1.84948 12.24553,-4.11309 z m -15.54866,2.64787 c 0.0839,-0.16145 0.20256,-1.42585 0.2637,-2.80976 0.0612,-1.38392 0.18663,-3.58761 0.27893,-4.8971 0.13841,-1.96387 0.12601,-2.47804 -0.0708,-2.93557 -0.13124,-0.30508 -2.19377,-2.89476 -4.58339,-5.75485 -2.38963,-2.86009 -6.5167,-7.80443 -9.17124,-10.98743 -2.65455,-3.183 -4.95581,-5.93824 -5.11392,-6.12277 -0.15811,-0.18451 -3.29341,-3.9439 -6.96734,-8.35419 -3.67393,-4.41028 -6.7672,-7.98952 -6.87393,-7.95387 -0.14095,0.0471 -0.19405,1.39424 -0.19405,4.92239 l 0,4.85756 0.58657,0.74785 c 0.32262,0.41131 2.36075,2.98222 4.52918,5.71312 2.16843,2.73089 5.49006,6.91805 7.38141,9.30479 3.32161,4.19163 5.06519,6.3909 11.029,13.91145 7.2755,9.17464 8.46908,10.65194 8.60616,10.65194 0.081,0 0.21583,-0.1321 0.29974,-0.29356 z m 21.42372,-10.50914 c 2.74818,-0.93904 4.49888,-1.69558 8.37837,-3.62064 3.2242,-1.5999 7.19311,-3.83803 8.66651,-4.88718 0.29244,-0.20824 0.4757,-0.49128 0.4757,-0.73474 0,-0.3814 -0.97307,-1.59478 -1.2779,-1.59349 -0.24523,8.1e-4 -1.05532,0.5733 -3.08352,2.17822 -3.50698,2.7751 -7.27679,5.13609 -12.06769,7.55784 -3.74866,1.89492 -3.91834,2.06593 -1.09147,1.09999 z m -3.7465,-2.20536 c 1.4503,-0.66909 3.52616,-1.72496 4.61305,-2.34638 4.56874,-2.61213 15.8153,-10.65364 15.8153,-11.30826 0,-0.40823 -1.44907,-1.68656 -1.91183,-1.68656 -0.22854,0 -1.28022,0.88557 -2.9539,2.4873 -6.5007,6.22125 -8.9685,8.10404 -15.57349,11.88172 -3.35589,1.91937 -4.2189,2.45223 -4.2193,2.60519 -4e-4,0.20404 1.52396,-0.38447 4.23017,-1.63301 z m -12.46471,-1.19317 c 2.43347,-1.28726 2.40875,-1.27356 5.39327,-2.99073 3.52138,-2.02604 5.98365,-3.72676 7.52085,-5.19474 2.5962,-2.47928 6.07475,-6.93256 7.54537,-9.65967 0.8356,-1.54952 2.50162,-5.67119 2.63858,-6.5277 0.1155,-0.72214 0.86851,0.26439 -10.24949,-13.42753 -4.49356,-5.53386 -5.92992,-7.30588 -8.02236,-9.89708 -2.05466,-2.54439 -3.69243,-4.56614 -5.50838,-6.79979 -0.67776,-0.83367 -2.60779,-3.21934 -4.28895,-5.30151 -1.68116,-2.08216 -3.15567,-3.86792 -3.27669,-3.96836 -0.37072,-0.30766 -0.61016,0.0144 -0.97905,1.31693 -0.46242,1.63272 -1.58071,5.02923 -2.04054,6.19763 -0.48301,1.22728 -1.69808,3.56247 -2.33641,4.49024 -2.7124,3.94236 -8.20872,8.126 -13.55658,10.31893 -1.35374,0.55511 -4.50204,1.59033 -6.87763,2.26151 -0.83445,0.23575 -1.10193,0.38692 -1.13964,0.64404 -0.0336,0.22893 0.90168,1.48686 2.93557,3.94834 11.72915,14.19496 14.75254,17.85846 21.50746,26.06099 4.17881,5.07435 7.71745,9.32044 7.86363,9.43577 0.14619,0.11538 0.37689,0.20969 0.51265,0.20969 0.13576,0 1.19701,-0.50263 2.35834,-1.11696 z m 7.5003,0.011 c 2.31219,-1.08908 7.47485,-4.37304 11.13427,-7.08247 5.68188,-4.20686 8.41025,-7.13868 11.72421,-12.59842 0.92724,-1.52763 1.01055,-1.89911 0.56855,-2.53507 -0.28613,-0.41167 -14.32681,-17.29553 -22.94376,-27.58977 -2.47132,-2.95236 -5.16963,-6.17939 -5.99626,-7.17119 -1.41482,-1.69752 -1.80492,-2.04845 -1.80492,-1.62369 0,0.15377 2.76054,3.66131 6.45973,8.20776 1.52175,1.87028 4.31638,5.32279 6.38689,7.89042 2.14662,2.66201 5.47913,6.7646 9.77321,12.03161 3.40819,4.18041 3.71492,4.61609 3.71583,5.27804 0.002,1.51057 -3.77918,9.50436 -6.25055,13.21401 -2.16245,3.24595 -5.32462,6.0185 -12.30157,10.78583 -1.30083,0.88886 -2.46113,1.73177 -2.57845,1.87313 -0.19092,0.23003 -0.14294,0.23219 0.45698,0.0205 0.36866,-0.13007 1.11379,-0.44539 1.65584,-0.70071 z"
         style="fill:none;stroke:#000000;stroke-width:2.44196296;stroke-miterlimit:4;stroke-dasharray:none" />
      <rect
         y="517.36218"
         x="107"
         height="100"
         width="100"
         id="rect4891-6"
         style="opacity:1;fill:none;fill-opacity:1;fill-rule:nonzero;stroke:none;stroke-width:5;stroke-linecap:round;stroke-linejoin:round;stroke-miterlimit:4;stroke-dasharray:none;stroke-dashoffset:0;stroke-opacity:1" />
    </g>
    <g
       id="g4942"
       inkscape:export-filename="C:\Users\Xpar\Desktop\personal\sintspelherman\assets\img\UI_2_l1.png"
       inkscape:export-xdpi="90"
       inkscape:export-ydpi="90">
      <path
         inkscape:export-ydpi="90"
         inkscape:export-xdpi="90"
         inkscape:export-filename="C:\Users\Xpar\Desktop\personal\sintspelherman\assets\img\hidden_2.png"
         inkscape:connector-curvature="0"
         id="path4191-6"
         d="m 113.07356,747.15782 c -1.38794,-0.50432 -2.31477,-1.23776 -4.83614,-3.82707 -2.89254,-2.97047 -3.29812,-3.72111 -3.29812,-6.10399 0,-1.38284 0.0911,-1.90092 0.47759,-2.71436 0.3835,-0.80728 4.00654,-4.54053 18.39238,-18.95185 l 17.91478,-17.94653 6.48504,6.48778 6.48505,6.48779 -17.94568,17.9128 c -14.6902,14.66329 -18.12804,17.99658 -18.95098,18.37464 -1.32029,0.60654 -3.47494,0.73462 -4.72392,0.28079 z m 55.6013,-27.51713 c -0.62687,-0.22845 -4.52174,-4.01918 -18.33236,-17.84214 -19.29267,-19.30993 -18.27277,-18.15473 -17.75992,-20.11562 0.1977,-0.75593 1.32961,-1.96066 9.8096,-10.44065 10.55588,-10.55587 10.24998,-10.30895 12.14967,-9.80755 0.73843,0.1949 1.61103,0.97913 6.42243,5.77196 l 5.5679,5.54641 0.80447,-0.72679 c 1.02827,-0.92899 2.13365,-1.24537 3.29029,-0.94176 0.73468,0.19283 1.52211,0.89186 5.61432,4.98406 4.09219,4.09221 4.79123,4.87965 4.98406,5.61432 0.30361,1.15664 -0.0131,2.26202 -0.94175,3.29029 l -0.72679,0.80447 5.5464,5.56791 c 4.79283,4.81139 5.57705,5.684 5.77195,6.42242 0.49964,1.89296 0.72375,1.61357 -9.6074,11.97716 -5.16127,5.17748 -9.61346,9.53531 -9.89374,9.68408 -0.83656,0.44402 -1.84428,0.52295 -2.69913,0.21143 z"
         style="fill:none;stroke:#000000;stroke-width:2.61276436;stroke-miterlimit:4;stroke-dasharray:none" />
      <rect
         y="654.36218"
         x="98"
         height="100"
         width="100"
         id="rect4891-6-3"
         style="opacity:1;fill:none;fill-opacity:1;fill-rule:nonzero;stroke:none;stroke-width:5;stroke-linecap:round;stroke-linejoin:round;stroke-miterlimit:4;stroke-dasharray:none;stroke-dashoffset:0;stroke-opacity:1" />
    </g>
    <g
       id="g4938"
       inkscape:export-filename="C:\Users\Xpar\Desktop\personal\sintspelherman\assets\img\UI_4_l1.png"
       inkscape:export-xdpi="90"
       inkscape:export-ydpi="90">
      <path
         inkscape:export-ydpi="90"
         inkscape:export-xdpi="90"
         inkscape:export-filename="C:\Users\Xpar\Desktop\personal\sintspelherman\assets\img\hidden_4.png"
         inkscape:connector-curvature="0"
         id="path4226-9"
         d="m 358.22751,662.1127 c -1.16245,-0.23604 -3.82767,-1.63867 -5.10769,-2.68804 -0.78436,-0.64302 -1.80069,-1.82235 -2.5132,-2.91629 -0.96061,-1.47483 -1.44346,-1.97809 -2.4508,-2.55443 -2.7113,-1.55125 -4.96031,-4.59403 -5.80839,-7.85839 -0.77434,-2.98058 -0.43728,-5.51562 1.13113,-8.50717 1.27246,-2.42704 1.27275,-2.4273 18.88433,-16.99781 2.71672,-2.2476 5.2238,-4.3354 5.57128,-4.63954 l 0.63179,-0.55299 0,-21.84154 0,-21.84153 0.67157,-0.67155 0.67155,-0.67156 11.06303,0 11.06303,0 0.67155,0.67156 c 0.66491,0.6649 0.67157,0.69791 0.67157,3.33128 l 0,2.65972 2.34065,0 c 2.85283,0 3.67795,0.40302 4.07802,1.99187 0.30941,1.22874 0.32519,48.62102 0.017,50.9924 -0.11694,0.90013 -0.46962,2.21755 -0.78364,2.92759 -1.12799,2.55059 -2.08117,3.66381 -5.5651,6.49942 -1.8387,1.49655 -4.09391,3.3413 -5.01159,4.09945 -6.48971,5.36162 -18.56742,15.12627 -19.83989,16.04024 -0.84759,0.6088 -2.21307,1.43267 -3.0344,1.8308 -1.38348,0.67064 -1.68768,0.72718 -4.13538,0.76852 -1.45313,0.0245 -2.90052,-0.007 -3.21641,-0.0721 z m 6.54722,-4.40745 c 0.98071,-0.50934 3.84788,-2.65917 7.35179,-5.51245 3.15923,-2.57262 7.11341,-5.77754 8.78706,-7.12205 l 3.04301,-2.44458 10e-4,-3.65406 c 8.1e-4,-3.45645 -0.0206,-3.63568 -0.40096,-3.31416 -0.22112,0.18695 -3.49067,2.81342 -7.26566,5.83663 -3.775,3.0232 -8.59901,6.89241 -10.72002,8.59827 -5.188,4.17251 -6.96581,5.19831 -9.7267,5.61234 -0.58464,0.0877 -1.06297,0.25538 -1.06297,0.37272 0,0.1173 0.54276,0.57086 1.20615,1.00787 2.94029,1.93688 5.85491,2.14237 8.78721,0.61947 z m -8.38517,-5.89949 c 2.40361,-0.80926 2.28102,-0.71908 15.50769,-11.40765 l 5.51384,-4.45577 0.11488,-8.79612 0.11488,-8.79611 0.75029,-0.67015 0.7503,-0.67018 5.39534,0 5.39535,0 0,-14.24409 0,-14.2441 -8.96,0 -8.95999,0 0,13.75656 c 0,11.43261 -0.0557,13.88987 -0.32974,14.54574 -0.3845,0.92025 -1.05293,1.54788 -5.99446,5.62858 -18.91039,15.61618 -17.984,14.78922 -19.12023,17.06814 -0.87287,1.75073 -0.92851,1.98071 -0.87969,3.63597 0.0672,2.28021 0.39145,3.36589 1.5014,5.02807 2.03086,3.04121 6.13027,4.65471 9.20017,3.62111 z m 34.11662,-14.60543 c 1.57942,-1.27838 3.19732,-2.69521 3.59532,-3.1485 1.08586,-1.23672 1.86966,-3.14968 2.15834,-5.2677 l 0.25833,-1.89537 -2.00762,0 -2.00761,0 -0.63103,1.07678 c -0.80426,1.37234 -2.22971,2.91984 -3.48532,3.78372 l -0.98167,0.67541 0,3.54999 c 0,1.95249 0.0517,3.54998 0.11475,3.54998 0.0631,0 1.40705,-1.04594 2.98648,-2.32431 z m -2.23113,-10.38563 c 0.78981,-1.17763 1.38543,-2.99971 1.56013,-4.77265 l 0.15629,-1.58611 -4.50968,0 -4.50968,0 0,6.32283 0,6.32282 3.38871,-2.75167 c 1.8638,-1.51341 3.6252,-3.10426 3.91423,-3.53522 z m 8.09793,-17.50133 -8.1e-4,-14.01435 -1.43954,0 -1.43954,0 -0.0592,14.08233 -0.0592,14.08233 1.4995,-0.0679 1.49953,-0.0679 -8.1e-4,-14.01435 z m 0.0748,-18.66679 0.032,-1.43604 -1.55076,1.4e-4 -1.55078,1.4e-4 0,1.50383 0,1.50383 1.5188,-0.0679 1.51878,-0.0679 0.032,-1.43604 z m 0.002,-7.35187 -0.0294,-2.69926 -1.464,0 -1.464,0 -0.0648,2.69948 -0.0648,2.69948 1.55805,-2.1e-4 1.55807,-2.2e-4 -0.0294,-2.69927 z m -6.51836,0.51714 0,-1.49333 -8.95998,0 -8.96,0 0,1.49333 0,1.49334 8.96,0 8.95998,0 0,-1.49334 z m 0,-7.23691 0,-2.75693 -8.95998,0 -8.96,0 0,2.75693 0,2.75691 8.96,0 8.95998,0 0,-2.75691 z"
         style="fill:none;stroke:#000000;stroke-width:2.42617464;stroke-miterlimit:4;stroke-dasharray:none" />
      <rect
         y="566.36218"
         x="321"
         height="100"
         width="100"
         id="rect4891-6-3-5"
         style="opacity:1;fill:none;fill-opacity:1;fill-rule:nonzero;stroke:none;stroke-width:5;stroke-linecap:round;stroke-linejoin:round;stroke-miterlimit:4;stroke-dasharray:none;stroke-dashoffset:0;stroke-opacity:1" />
    </g>
  </g>
</svg>
